<?xml version="1.0" standalone="no"?>
<!DOCTYPE svg PUBLIC "-//W3C//DTD SVG 20010904//EN"
 "http://www.w3.org/TR/2001/REC-SVG-20010904/DTD/svg10.dtd">
<svg version="1.0" xmlns="http://www.w3.org/2000/svg"
 width="512.000000pt" height="512.000000pt" viewBox="0 0 512.000000 512.000000"
 preserveAspectRatio="xMidYMid meet">

<g transform="translate(0.000000,512.000000) scale(0.100000,-0.100000)"
fill="#000000" stroke="none">
<path d="M1095 4030 c11 -13 728 -730 1593 -1593 1339 -1338 1572 -1574 1572
-1598 l0 -28 58 34 c50 30 85 39 302 80 135 25 253 48 263 51 16 5 17 60 17
969 l0 963 -359 352 c-197 193 -383 370 -412 392 -104 78 -271 146 -474 192
-64 15 -582 57 -1960 160 -259 20 -504 38 -545 42 l-75 6 20 -22z"/>
<path d="M1011 3844 c-354 -606 -701 -1192 -739 -1247 -41 -60 -47 -76 -50
-132 -3 -51 0 -73 17 -107 14 -30 133 -153 383 -399 l363 -356 133 -51 c136
-53 158 -59 147 -43 -5 9 -23 235 -135 1721 -27 360 -50 670 -52 689 -3 33 -6
30 -67 -75z"/>
</g>
</svg>
