<?xml version="1.0" standalone="no"?>
<!DOCTYPE svg PUBLIC "-//W3C//DTD SVG 20010904//EN"
 "http://www.w3.org/TR/2001/REC-SVG-20010904/DTD/svg10.dtd">
<svg version="1.0" xmlns="http://www.w3.org/2000/svg"
 width="64.000000pt" height="64.000000pt" viewBox="0 0 64.000000 64.000000"
 preserveAspectRatio="xMidYMid meet">

<g transform="translate(0.000000,64.000000) scale(0.100000,-0.100000)"
fill="#000000" stroke="none">
<path d="M200 532 l-115 -67 0 -145 0 -145 118 -69 117 -68 118 68 117 69 0
145 0 145 -115 67 c-63 37 -117 67 -120 67 -3 0 -57 -30 -120 -67z m237 -15
l108 -63 0 -134 0 -134 -112 -64 -113 -64 -112 64 -113 64 0 134 0 134 105 62
c58 34 110 63 117 63 6 1 60 -27 120 -62z"/>
<path d="M390 361 c-63 -38 -115 -74 -115 -82 0 -24 53 -35 84 -18 26 15 30
15 65 -3 l38 -20 -22 -24 c-13 -13 -43 -31 -67 -40 -37 -14 -50 -15 -85 -5
-23 7 -54 26 -70 42 l-29 29 -36 -19 -36 -18 96 -57 c53 -31 101 -56 107 -56
6 0 54 25 106 56 l94 55 0 115 c0 63 -3 114 -7 113 -5 0 -60 -31 -123 -68z
m63 -3 c4 -10 8 -10 15 1 9 12 13 12 28 -3 14 -15 15 -19 3 -27 -12 -8 -12
-10 0 -18 12 -8 11 -12 -3 -27 -15 -14 -19 -15 -27 -3 -8 12 -10 12 -18 0 -8
-12 -12 -11 -27 3 -14 15 -15 19 -3 27 12 8 12 10 0 18 -12 8 -12 11 0 25 17
19 26 20 32 4z"/>
<path d="M450 320 c0 -5 5 -10 10 -10 6 0 10 5 10 10 0 6 -4 10 -10 10 -5 0
-10 -4 -10 -10z"/>
</g>
</svg>
